<svg xmlns="http://www.w3.org/2000/svg" viewBox="0 0 315.14 130.4"><defs><style>.cls-1{fill:#ccc;}.cls-2{fill:#d7a200;}.cls-3{fill:none;stroke:#3f0;stroke-linecap:round;stroke-linejoin:round;stroke-width:0.25px;}</style></defs><g id="Layer_2" data-name="Layer 2"><g id="Layer_1-2" data-name="Layer 1"><path class="cls-1" d="M279.59,4.45c-.2-2-1-3.3-2.45-3.95a13.66,13.66,0,0,0-4.2-.5h-3c-3.25,0-5.3.2-6.05.55a3.65,3.65,0,0,0-2,2.6,18.31,18.31,0,0,0-.45,3.75l0,2.2a21.13,21.13,0,0,0,.6,5.54,3.58,3.58,0,0,0,.65,1.15,3.5,3.5,0,0,0,2.94,1.5c.5.05,1.1.05,1.75.05l5.95.05h2.1a3.87,3.87,0,0,0,3.85-2.8,9.05,9.05,0,0,0,.4-1.94c.05-.8.1-1.8.15-3l-.05-2.8c0-1.05-.05-1.85-.1-2.45Zm-6.45,0a3.73,3.73,0,0,1,1.3.2,1.65,1.65,0,0,1,1,1.5c.05.35.1,1,.15,2a11.63,11.63,0,0,1-.35,3.75,1.57,1.57,0,0,1-1.2,1,11.07,11.07,0,0,1-1.45.09l-3.95-.05c-1.35,0-2.2-.15-2.5-.49s-.6-1.4-.65-3a12.07,12.07,0,0,1,.4-4.1,1.59,1.59,0,0,1,1.45-.9c.55,0,1.1,0,1.65,0h1.5c1,0,1.9,0,2.65,0Z"/><path class="cls-1" d="M251.6,4.4h2.55a2.39,2.39,0,0,1,1.45.35c.35.25.5.75.55,1.6h4.15a24.56,24.56,0,0,0-.2-3A3.62,3.62,0,0,0,258.65.85a10.31,10.31,0,0,0-4.9-.85h-1.9a26.07,26.07,0,0,0-5,.35,3.85,3.85,0,0,0-3.1,2.9,7.57,7.57,0,0,0-.35,1.85c-.05,1.2-.1,2.5-.1,4a28.5,28.5,0,0,0,.2,3.89,5.77,5.77,0,0,0,.9,2.6,2.79,2.79,0,0,0,1.45,1.15,4,4,0,0,0,1.6.45c.6.1,1.2.15,1.85.2s1.5.05,2.75.05h1.6c.85-.05,1.7-.1,2.55-.2a4.54,4.54,0,0,0,3.4-1.5,2.18,2.18,0,0,0,.5-.95,11.68,11.68,0,0,0,.35-3.24v-.85H256.3v.6c-.1,1.15-.65,1.69-1.65,1.75h-5a1.94,1.94,0,0,1-2.1-1.6,16.94,16.94,0,0,1-.1-3.25,13,13,0,0,1,.15-2.5,1.68,1.68,0,0,1,1.65-1.2,22.63,22.63,0,0,1,2.35,0Z"/><path class="cls-1" d="M284.89,17.19V13h6.54c.85-.05,1.35.15,1.6.55a4.54,4.54,0,0,1,.3,2.1l.05,1.55h4.15v-2.1a8.27,8.27,0,0,0-.4-3A3.57,3.57,0,0,0,295,10.6,3.33,3.33,0,0,0,297.13,9a8.88,8.88,0,0,0,.45-3.2,14.61,14.61,0,0,0-.2-2.55,4,4,0,0,0-.4-1.15A3.05,3.05,0,0,0,294.38.3c-.55,0-1.1-.1-1.65-.1h-12v17Zm5.79-8.59h-5.79v-4l6.89.05A1.7,1.7,0,0,1,293,5a2,2,0,0,1,.4,1.5c0,1-.2,1.6-.6,1.85a1.53,1.53,0,0,1-.85.2,11.74,11.74,0,0,1-1.3,0Z"/><polygon class="cls-1" points="227.36 0.2 223.21 0.2 223.21 12.89 215.36 0.2 208.82 0.2 208.82 17.19 212.91 17.19 212.91 4.5 220.76 17.19 227.36 17.19 227.36 0.2 227.36 0.2"/><polygon class="cls-1" points="229.01 0.2 229.01 17.19 233.16 17.19 233.16 0.2 229.01 0.2 229.01 0.2"/><path class="cls-1" d="M314.88,3.5c-.36-1.6-1.1-2.6-2.35-2.95a7.93,7.93,0,0,0-2-.35h-11.6v17h4.15v-4.1h7.5a11.38,11.38,0,0,0,1.3-.1,2.88,2.88,0,0,0,1.59-.64c1.1-.85,1.66-2.8,1.66-5.85a12.76,12.76,0,0,0-.25-3Zm-11.8,1.1H308a17.22,17.22,0,0,1,1.8.05c.75,0,1.15.7,1.2,1.85a3.65,3.65,0,0,1-.3,1.6c-.15.35-.55.55-1.15.6h-6.5V4.6Z"/><polygon class="cls-2" points="314.27 42.43 314.27 28.44 273.29 28.44 227.81 88.91 182.33 28.44 133.1 28.44 87.61 88.91 42.13 28.44 1.15 28.44 1.15 42.43 68.62 130.4 106.61 130.4 157.74 63.77 208.82 130.4 246.8 130.4 314.27 42.43 314.27 42.43"/><path class="cls-1" d="M127.45.25a14.06,14.06,0,0,0-1.5,0H113.3v17h12.2a10.29,10.29,0,0,0,2.55-.2,3.42,3.42,0,0,0,2.15-1.5,6.85,6.85,0,0,0,1-3c.05-.59.1-1.64.1-3.19s-.05-2.85-.1-3.9a8.07,8.07,0,0,0-1.15-3.65A3,3,0,0,0,128.8.7a3.09,3.09,0,0,0-1.35-.45Zm-10,4.35h7.4A1.81,1.81,0,0,1,127,6.2a15,15,0,0,1,.15,2.25v1.4a4.44,4.44,0,0,1-.5,2.3c-.3.45-.9.64-1.8.64h-7.4V4.6Z"/><polygon class="cls-1" points="100.01 0.2 93.46 0.2 93.46 17.19 97.56 17.19 97.56 4.5 105.41 17.19 112 17.19 112 0.2 107.86 0.2 107.86 12.89 100.01 0.2 100.01 0.2"/><path class="cls-1" d="M85.52.2h-5.3l-7,15.74V12.79h-9.1V.2H60v17H77.42l1.25-2.9H87l1.29,2.9H93L85.52.2Zm-.15,10.1H80.32l2.55-5.8,2.5,5.8Z"/><polygon class="cls-1" points="59.83 0.2 54.53 0.2 50.03 7.05 45.58 0.2 40.23 0.2 47.98 11.25 47.98 17.19 52.08 17.19 52.08 11.25 59.83 0.2 59.83 0.2"/><polygon class="cls-1" points="40.23 4.15 40.23 0.2 25.29 0.2 25.29 17.19 40.38 17.19 40.38 13.24 29.44 13.24 29.44 10.15 39.63 10.15 39.63 6.5 29.44 6.5 29.44 4.15 40.23 4.15 40.23 4.15"/><path class="cls-1" d="M200.87.2h-5.3l-7.5,17h4.7l1.25-2.9h8.35l1.3,2.9h4.7l-7.5-17Zm-.15,10.1h-5.05l2.55-5.8,2.5,5.8Z"/><polygon class="cls-1" points="188.53 0.2 172.48 0.2 172.48 4.6 178.43 4.6 178.43 17.19 182.58 17.19 182.58 4.6 188.53 4.6 188.53 0.2 188.53 0.2"/><path class="cls-1" d="M170.83,15.54a6.55,6.55,0,0,0,.95-3.39l.05-12h-4.15V9.5a10.06,10.06,0,0,1-.05,1.3,2,2,0,0,1-1.75,2.1c-.55,0-1.45.09-2.69.09-.81,0-1.6-.05-2.4-.09a1.88,1.88,0,0,1-1.95-2.1,2.91,2.91,0,0,1,0-1V.2h-4.15V11a12.81,12.81,0,0,0,.7,3.84c.55,1.65,2.05,2.5,4.4,2.55l2.94.05a46.31,46.31,0,0,0,5-.15c.1,0,.3,0,.6-.1a4.43,4.43,0,0,0,2.55-1.6Z"/><polygon class="cls-1" points="140.19 0.2 134.85 0.2 142.59 11.25 142.59 17.19 146.69 17.19 146.69 11.25 154.44 0.2 149.14 0.2 144.64 7.05 140.19 0.2 140.19 0.2"/><polygon class="cls-1" points="140.44 12.89 140.44 9.1 131.9 9.1 131.9 12.89 140.44 12.89 140.44 12.89"/><polygon class="cls-1" points="24.99 0.2 20.89 0.2 18.49 12.24 14.74 0.2 10.25 0.2 6.55 12.14 3.95 0.2 0 0.2 3.85 17.19 8.9 17.19 12.49 5.45 16.09 17.19 21.14 17.19 24.99 0.2 24.99 0.2"/><polygon class="cls-1" points="131.85 121.75 131.85 130.4 183.68 130.4 183.68 121.75 157.74 87.31 131.85 121.75 131.85 121.75"/><polygon class="cls-1" points="227.76 70.42 227.81 70.42 253.3 36.44 253.3 28.44 207.32 28.44 201.82 35.94 227.76 70.42 227.76 70.42"/><polygon class="cls-1" points="87.56 70.52 87.61 70.52 113.5 36.04 108.01 28.54 62.02 28.54 62.02 36.53 87.56 70.52 87.56 70.52"/><line class="cls-3" x1="87.62" y1="70.52" x2="87.56" y2="70.52"/></g></g></svg>