<svg xmlns="http://www.w3.org/2000/svg" viewBox="0 0 491.24 76.68"><g id="Layer_2" data-name="Layer 2"><g id="Layer_1-2" data-name="Layer 1"><path d="M439.51,14.57h51.32a65.1,65.1,0,0,1,0,7.13c-2.66,24.34-19.33,43.14-43,49.38a174.43,174.43,0,0,1-45.53,5.59c-48.41-.14-96.81,0-145.22,0-5,0-8.48-2.61-9.37-7.2.77,0,1.51-.12,2.25-.12q42.46,0,84.94,0c18.33,0,36.63-1.22,54.45-5.55,25.46-6.18,41.86-22.45,49.64-47.44C439.18,15.73,439.34,15.16,439.51,14.57Z"/><path d="M.18,14.51h2c15.9,0,31.79,0,47.69,0a2,2,0,0,1,2.33,1.73c8.49,27.11,26.74,43.38,54.63,48.63,18.15,3.42,36.5,4.57,55,4.48,26.46-.12,52.91,0,79.37,0h2.11a8.34,8.34,0,0,1-7.85,7.31c-.54,0-1.08,0-1.62,0-51,0-102,.08-153,0-16.2,0-32.08-2.68-47.07-8.92C13.32,59.18-.07,38.24.08,16.19.09,15.71.14,15.24.18,14.51Z"/><path d="M245.64,13.45a5.07,5.07,0,0,1-.49-.73c-1-2.7-3-3.63-5.77-3.63q-41.31,0-82.62,0H8.45c-4.86,0-8-2.65-8.44-7a15.2,15.2,0,0,1,.13-2H2.79q115.56,0,231.12,0C239,0,243,1.38,245.52,6.18,247.28,3,249.66.89,253.14.27a15.06,15.06,0,0,1,2.68-.21H489.1c2.11,0,2.36.3,2,2.41a7.54,7.54,0,0,1-7.69,6.65h-2q-114.39,0-228.78,0C249.32,9.07,246.73,9.78,245.64,13.45Z"/><path d="M432.54,14.69c-1.08,2.47-1.94,4.76-3,6.94-8.93,17.73-22.73,30.05-41.65,36.06-6.92,2.2-14.28,3.11-21.49,4.25-13.54,2.14-27.19,2.6-40.89,2.53-20.57-.1-41.15,0-61.72,0h-2.27a26.08,26.08,0,0,0,2.15-2.32c1.88-2.68,3.86-5.32,5.46-8.16.72-1.27,1.28-1.82,2.76-1.81,17,.05,34,0,50.93,0,20.94,0,37.54-15.24,39.29-36.09.08-1,.26-1.62,1.53-1.61q33.91,0,67.84,0A10.5,10.5,0,0,1,432.54,14.69Z"/><path d="M59,14.58h69.67c.5,2.84.81,5.64,1.49,8.35a38.77,38.77,0,0,0,37.38,29.26q25.92,0,51.85,0a2.21,2.21,0,0,1,2.5,1.63A26,26,0,0,0,230,64.45h-2.21c-24.3,0-48.6.14-72.9,0a206.37,206.37,0,0,1-50.23-6.3C92,54.84,81.54,47.67,72.77,38.05A69.22,69.22,0,0,1,59.51,16.8c-.22-.55-.42-1.12-.6-1.69A1.65,1.65,0,0,1,59,14.58Z"/><path d="M243.81,18.11c-17.33,4.09-23,11-24,29.05-.52,0-1,.08-1.57.08-15.83,0-31.67,0-47.5,0-17.36-.07-32.22-14.26-33.19-31.6,0-.29,0-.58,0-1.13H238.52C241.73,14.51,243.07,15.4,243.81,18.11Z"/><path d="M247.27,18.14c.59-2.24,1.81-3.36,3.84-3.59a15.4,15.4,0,0,1,1.8,0H353.7c-.37,2.37-.57,4.55-1.05,6.67A33.81,33.81,0,0,1,320.1,47.24q-23.57,0-47.14,0H271.2C272.54,31.09,261,19.25,247.27,18.14Z"/><path d="M245.55,63.17A19.29,19.29,0,1,1,264.8,44,19.13,19.13,0,0,1,245.55,63.17Z"/></g></g></svg>