<svg xmlns="http://www.w3.org/2000/svg" viewBox="0 0 493.47 76.86" fill="#ccc"><g id="Layer_2" data-name="Layer 2"><g id="Layer_1-2" data-name="Layer 1"><path d="M246.7,13.74C245.43,9.46,242.55,9,239.17,9Q123.81,9.06,8.43,9C3.75,9,.7,6.55.1,2.3-.18.26,0,0,2.11,0Q119.18,0,236.27,0a10.92,10.92,0,0,1,10.39,6.19c.31-.47.52-.78.72-1.1A10.36,10.36,0,0,1,256.19,0c.48,0,1,0,1.44,0H493a7.14,7.14,0,0,1-5.91,8.92,20.1,20.1,0,0,1-2.69.1Q368.9,9,253.45,9C250.3,9,247.9,9.87,246.7,13.74Z"/><path d="M248.5,18a4,4,0,0,1,4.32-3.38c6.18,0,12.36,0,18.53,0h83.78a32.36,32.36,0,0,1-6.57,18.88c-6.87,9.1-16.12,13.8-27.53,13.88-15.48.1-31,0-46.44,0h-2C272.75,30.74,264.73,21,248.5,18Z"/><path d="M138.3,14.7c.69,0,1.28-.08,1.86-.08h99.91c2.93,0,4.28,1,4.81,3.6A26.07,26.07,0,0,0,221,47.4h-1.9c-15.78,0-31.56,0-47.34,0a34.12,34.12,0,0,1-33.5-31C138.26,15.86,138.3,15.33,138.3,14.7Z"/><path d="M227.34,44.12a19.35,19.35,0,1,1,19.59,19.25A19.33,19.33,0,0,1,227.34,44.12Z"/><path d="M70.85,47.7l-25.13,4C38.56,52.88,31.39,54,24.25,55.19c-5.41,1-9.74-.55-12.8-5.16-2.27-3.42-4.38-6.94-6.79-10.79,4.62-.4,8.6-.77,12.58-1.09C31.16,37,45.08,35.91,59,34.74a2.46,2.46,0,0,1,2.5,1.17C64.51,39.85,67.65,43.69,70.85,47.7Z"/><path d="M493.47,14.69a90.75,90.75,0,0,1-.83,9.45,10.76,10.76,0,0,1-11.08,8.66C466.71,32,451.88,31.15,437,30.31c-.42,0-.82-.1-1.18-.15l6-15.47Z"/><path d="M57.54,30.24c-3,.18-6,.38-9,.55l-36.11,2A11,11,0,0,1,.67,23.37c-.39-2.82-.39-5.7-.58-8.66.93,0,1.51-.09,2.1-.09,16,0,31.92,0,47.88,0,1.46,0,2,.44,2.45,1.82C54.05,21,55.8,25.5,57.54,30.24Z"/><path d="M362.07,26.07l2.1-11.37h70.12a15.82,15.82,0,0,1-.58,1.86c-1.17,2.56-2.3,5.15-3.59,7.65A9,9,0,0,1,421,29.4q-17.25-.93-34.49-1.93l-22.45-1.28Z"/><path d="M129.22,14.68c.7,3.86,1.38,7.54,2.08,11.37-2.07.13-4.14.28-6.21.4-17,1-34,1.83-51,2.94-5.56.36-9.4-1.56-11.61-6.71-1.12-2.62-2.33-5.2-3.59-8Z"/><path d="M488.37,39.33c-2.42,5-4.87,9.71-8.84,13.4a10.38,10.38,0,0,1-9,2.54q-23.72-3.74-47.41-7.58c-.1,0-.19-.12-.42-.26.24-.32.45-.64.7-.93,3-3.61,5.92-7.23,8.95-10.78a2.58,2.58,0,0,1,1.83-.93q26.72,2.1,53.42,4.34A5.77,5.77,0,0,1,488.37,39.33Z"/><path d="M23.71,61.75l9.79-1.87Q54.25,55.94,75,52a2.58,2.58,0,0,1,1.68.14c5.23,3.12,10.42,6.31,15.51,9.41-.73.21-1.88.57-3,.89-10.64,2.9-21.3,5.72-31.91,8.72-5.06,1.43-10,.9-14.9-.4a57,57,0,0,1-16.86-7.48c-.45-.3-.89-.6-1.32-.93A4,4,0,0,1,23.71,61.75Z"/><path d="M401.33,61.49c4.59-2.7,9.3-5.3,13.82-8.21a5.89,5.89,0,0,1,4.77-1c16,3.12,32,6.13,48.05,9.18.5.09,1,.25,1.75.45a52.45,52.45,0,0,1-14.39,7.44c-4.79,1.61-9.68,3.19-14.77,2.46A98,98,0,0,1,429,69.05c-8.86-2.37-17.7-4.8-26.55-7.21C402,61.72,401.58,61.56,401.33,61.49Z"/><path d="M356.22,37c1.44-2.6,2.75-5.08,4.21-7.48a2.19,2.19,0,0,1,1.73-.71c7.36.55,14.71,1.16,22.06,1.77l38.19,3.17c.34,0,.68.08,1.7.21-2.95,3.09-5.53,5.86-8.18,8.57a9.25,9.25,0,0,1-8.54,2.74c-2.43-.4-4.86-.77-7.29-1.15l-42.79-6.85C357,37.22,356.62,37.1,356.22,37Z"/><path d="M137.23,37.06,124.5,39.12c-12.48,2-25,4-37.46,6-3.83.63-7.14,0-9.86-2.94l-7.84-8.29c3.48-.31,6.31-.58,9.15-.81q26.36-2.19,52.71-4.37a1.78,1.78,0,0,1,2,1.2C134.43,32.29,135.8,34.54,137.23,37.06Z"/><path d="M406.64,49.8a38.09,38.09,0,0,1-3.29,2.05c-3.72,1.8-7.39,3.74-11.25,5.19a10.56,10.56,0,0,1-5.94.37c-13.22-3.44-26.39-7.1-39.58-10.69-.17,0-.32-.12-.7-.26.42-.37.73-.68,1.08-.94A16.79,16.79,0,0,0,350.19,43c2.38-3.16,5.25-3.11,8.81-2.39,15.16,3.07,30.38,5.85,45.57,8.74C405.13,49.42,405.69,49.57,406.64,49.8Z"/><path d="M86.84,49.73l15.68-3c11.77-2.24,23.54-4.46,35.29-6.74a3.17,3.17,0,0,1,3.18.92c2,2,4.21,3.68,6.5,5.64-4,1.11-8,2.2-11.94,3.27-9.13,2.48-18.27,4.92-27.38,7.46a10.4,10.4,0,0,1-7.53-.41c-4-1.91-8-3.87-11.92-5.84A16.15,16.15,0,0,1,86.84,49.73Z"/><path d="M132.57,69c-5.74,2.38-11.44,4.85-17.25,7.07a15.68,15.68,0,0,1-5.48.77c-10.26.07-20.51.13-30.76,0-4.65-.06-9.29-.57-13.93-.88l-.08-.48a14.07,14.07,0,0,1,1.34-.56q16.83-5.2,33.67-10.35a7.48,7.48,0,0,1,3.13-.14c9.31,1.27,18.62,2.61,27.93,3.92l1.35.15Z"/><path d="M360.78,68.74c9.27-1.35,18.41-2.57,27.51-4.07a14.34,14.34,0,0,1,7,.44c10.4,3.29,20.83,6.46,31.25,9.68a3.41,3.41,0,0,1,1.72,1c-2.65.26-5.3.7-7.95.74-12.53.16-25.06.29-37.59.24a18.86,18.86,0,0,1-6.63-1.42c-4.86-1.88-9.6-4-14.39-6.11C361.37,69.09,361.09,68.9,360.78,68.74Z"/><path d="M323.29,52.41a41.68,41.68,0,0,0,17.9-3.58,2.41,2.41,0,0,1,1.54.07q18,5.51,35.91,11.05c.17,0,.33.14.83.36a10.84,10.84,0,0,1-1.46.42c-8.44,1.05-16.88,2.15-25.34,3.06a10.42,10.42,0,0,1-4.92-.64C339.83,59.88,332,56.41,324.12,53A6.81,6.81,0,0,1,323.29,52.41Z"/><path d="M169.68,52.76c-.62.29-1.23.6-1.86.87-7.14,3.09-14.33,6.1-21.42,9.3-3,1.35-6,1-9,.62-7.43-.88-14.85-1.89-22.27-2.86a9.26,9.26,0,0,1-1.21-.39c1.11-.39,1.86-.67,2.61-.9,11.22-3.46,22.43-6.93,33.66-10.32a4.55,4.55,0,0,1,2.87.14,41.44,41.44,0,0,0,15.21,3.17c.45,0,.9.06,1.34.09Z"/><path d="M192.58,52.81q-9.33,5.73-18.68,11.45a2.48,2.48,0,0,1-1.17.37c-7.49,0-15,0-22.46,0l-.1-.52c.43-.24.84-.51,1.28-.71Q162.7,58.19,174,53a4.33,4.33,0,0,1,1.69-.56c5.62,0,11.23,0,16.85,0Z"/><path d="M343.08,64.65c-5.38,0-10.78-.26-16.14.07a18.81,18.81,0,0,1-12.73-3.6c-3.8-2.71-7.93-4.94-11.91-7.4-.5-.3-1-.64-1.79-1.18.88-.07,1.38-.14,1.88-.15,2.87,0,5.77.18,8.63,0a24.49,24.49,0,0,1,13.6,3c5.52,2.86,11.27,5.3,16.92,7.92.54.25,1.06.52,1.59.77Z"/><path d="M370,76.74c-.56,0-1.13.08-1.7.08-8.88,0-17.76,0-26.63,0a6.64,6.64,0,0,1-3.18-.91c-3.21-1.85-6.34-3.85-9.87-6a15.78,15.78,0,0,1,1.64-.23q11.14-.32,22.29-.58a4.85,4.85,0,0,1,2.09.28c5,2.26,10,4.59,15,6.89.16.08.32.14.48.21Z"/><path d="M164.44,70.09c-3.56,2.17-7.11,4.36-10.69,6.51a2.56,2.56,0,0,1-1.21.21H124.3a11,11,0,0,1-1.33-.2c3.77-1.75,7.15-3.11,10.33-4.84a21,21,0,0,1,12.54-2.55c5.47.53,11,.3,16.52.39.65,0,1.29,0,1.94,0Z"/><path d="M282.69,52.39c4.35,0,8.42,0,12.48,0a2.88,2.88,0,0,1,1.49.5c5.43,3.61,10.84,7.26,16.25,10.9a7.88,7.88,0,0,1,.68.64,9.45,9.45,0,0,1-1.32.19c-5.09,0-10.18,0-15.26,0a3.15,3.15,0,0,1-1.94-.62c-4-3.59-8-7.26-11.92-10.91A3.77,3.77,0,0,1,282.69,52.39Z"/><path d="M210.55,52.83c-4.1,3.76-8.19,7.54-12.31,11.27a2.3,2.3,0,0,1-1.45.52c-5.57,0-11.13,0-17.13,0a15.3,15.3,0,0,1,1.18-1.07l15.65-10.52a2.77,2.77,0,0,1,1.27-.61c4.22,0,8.44,0,12.67,0Z"/><path d="M204.41,64.51l6.16-6.61a14.16,14.16,0,0,0,1.93-2.11c2-3.4,5.18-3.82,8.67-3.38.45.06,1.13.32,1.26.66a27.67,27.67,0,0,0,8.37,11.44Z"/><path d="M288.82,64.53H263l-.29-.4a11.25,11.25,0,0,0,1.28-.89,27.16,27.16,0,0,0,6.75-9.64,2.27,2.27,0,0,1,1.62-1.16c5.11-.28,5.11-.25,8.6,3.48q3.43,3.67,6.86,7.36C288.14,63.61,288.4,64,288.82,64.53Z"/><path d="M191.8,70.05c-2.25,2.07-4.48,4.15-6.75,6.17a2.34,2.34,0,0,1-1.44.57c-7.13,0-14.25,0-21.38,0-.1,0-.2-.1-.56-.3a59.7,59.7,0,0,0,5.15-3.55,14.42,14.42,0,0,1,11.08-3.4c4,.31,8,.07,12,.07h1.73Z"/><path d="M301.71,69.61h2.45c5.27,0,10.55,0,15.82,0a5.61,5.61,0,0,1,2.81.86c3,1.88,5.87,3.89,9.17,6.11-.83.1-1.25.2-1.66.2-6.66,0-13.31,0-20,0a4,4,0,0,1-2.37-.92c-2.18-1.86-4.25-3.85-6.37-5.79Z"/><path d="M273.68,76.82h-3.34c-4.37,0-8.73,0-13.1,0a8.31,8.31,0,0,1-8.25-7.2h3.39c5.5,0,11,0,16.51,0a1.86,1.86,0,0,1,2,1.29C271.72,72.75,272.63,74.57,273.68,76.82Z"/><path d="M219.73,76.77c1.11-2.37,2.05-4.43,3.07-6.45a1.49,1.49,0,0,1,1.09-.67c6.77,0,13.53,0,20.3.09.05,0,.1.05.16.08a7.88,7.88,0,0,1-7.18,6.89C231.5,77,225.81,76.77,219.73,76.77Z"/><path d="M300.5,76.82h-9c-3.05,0-6.11.07-9.15,0a2.8,2.8,0,0,1-2-1.06c-1.28-1.85-2.37-3.83-3.73-6.1h4.25c3.77,0,7.54-.07,11.3,0a4.32,4.32,0,0,1,2.59,1.15C296.68,72.58,298.36,74.53,300.5,76.82Z"/><path d="M193.18,76.49c2.06-2.2,4-4.3,6-6.37a1.7,1.7,0,0,1,1.1-.48c5.32,0,10.65,0,16.41,0-1.49,2.47-2.78,4.66-4.14,6.8-.17.27-.73.38-1.11.39-5.88,0-11.75,0-17.63,0C193.7,76.78,193.6,76.69,193.18,76.49Z"/></g></g></svg>