<svg xmlns="http://www.w3.org/2000/svg" viewBox="0 0 313.13 101.96"><defs><style>.cls-1{fill:#EBBF06;}.cls-2{fill:#ccc;}.cls-3{fill:none;stroke:#3f0;stroke-linecap:round;stroke-linejoin:round;stroke-width:0.25px;}</style></defs><g id="Layer_2" data-name="Layer 2"><g id="Layer_1-2" data-name="Layer 1"><polygon class="cls-1" points="313.13 13.99 313.13 0 272.14 0 226.66 60.48 181.18 0 131.95 0 86.47 60.48 40.98 0 0 0 0 13.99 67.47 101.96 105.46 101.96 156.59 35.34 207.67 101.96 245.65 101.96 313.13 13.99 313.13 13.99"/><polygon class="cls-2" points="130.7 93.31 130.7 101.96 182.53 101.96 182.53 93.31 156.59 58.88 130.7 93.31 130.7 93.31"/><polygon class="cls-2" points="226.61 41.98 226.66 41.98 252.15 8 252.15 0 206.17 0 200.67 7.5 226.61 41.98 226.61 41.98"/><polygon class="cls-2" points="86.42 42.08 86.47 42.08 112.36 7.6 106.86 0.1 60.88 0.1 60.88 8.1 86.42 42.08 86.42 42.08"/><line class="cls-3" x1="86.47" y1="42.08" x2="86.41" y2="42.08"/></g></g></svg>